M48
; DRILL file {KiCad (6.0.1)} date Mon Aug 15 17:42:42 2022
; FORMAT={-:-/ absolute / inch / decimal}
; #@! TF.CreationDate,2022-08-15T17:42:42+03:00
; #@! TF.GenerationSoftware,Kicad,Pcbnew,(6.0.1)
; #@! TF.FileFunction,Plated,1,2,PTH
FMAT,2
INCH
; #@! TA.AperFunction,Plated,PTH,ComponentDrill
T1C0.0079
; #@! TA.AperFunction,Plated,PTH,ViaDrill
T2C0.0157
; #@! TA.AperFunction,Plated,PTH,ComponentDrill
T3C0.0236
; #@! TA.AperFunction,Plated,PTH,ComponentDrill
T4C0.0315
; #@! TA.AperFunction,Plated,PTH,ComponentDrill
T5C0.0394
%
G90
G05
T1
X5.3642Y-3.345
X5.4075Y-3.345
T2
X5.0079Y-2.4449
X5.0315Y-3.0118
X5.0315Y-3.0512
X5.0394Y-1.9803
X5.0591Y-3.126
X5.0709Y-3.0118
X5.0984Y-3.0866
X5.0984Y-3.126
X5.1526Y-2.378
X5.185Y-1.9921
X5.2323Y-3.1811
X5.2323Y-3.2165
X5.2402Y-3.4213
X5.2559Y-2.998
X5.2677Y-3.1811
X5.338Y-2.0394
X5.3385Y-2.2402
X5.3386Y-1.9409
X5.3386Y-2.0783
X5.3386Y-2.2047
X5.3387Y-1.9996
X5.3504Y-3.5157
X5.378Y-3.4803
X5.3819Y-2.3858
X5.3975Y-2.2402
X5.3976Y-2.039
X5.3976Y-2.1614
X5.3977Y-1.9996
X5.3983Y-2.2004
X5.4173Y-2.6378
X5.4282Y-2.93
X5.437Y-2.7362
X5.4719Y-2.2559
X5.4723Y-2.1732
X5.4724Y-2.0945
X5.5117Y-3.2677
X5.5118Y-3.2323
X5.5511Y-3.2677
X5.5512Y-2.1339
X5.5512Y-2.2165
X5.5512Y-3.2323
X5.5905Y-3.2677
X5.5906Y-3.2323
X5.6201Y-2.9744
X5.626Y-2.4803
X5.6294Y-2.2559
X5.6297Y-2.1732
X5.6298Y-3.2677
X5.6299Y-2.0945
X5.6299Y-3.2323
X5.6693Y-2.6457
X5.7087Y-2.6378
X5.709Y-2.0787
X5.7091Y-2.0
X5.7559Y-2.4882
X5.7638Y-2.3543
X5.7638Y-2.6299
X5.7681Y-2.0787
X5.7682Y-2.0
X5.8189Y-2.1339
X5.8268Y-2.3012
X5.8346Y-2.0709
X5.8386Y-2.0315
X5.8465Y-2.3898
X5.8543Y-2.2008
X5.8622Y-1.9803
X5.875Y-2.437
X6.0118Y-2.2677
X6.0394Y-2.5866
X6.0669Y-2.2441
X6.0669Y-2.3504
X6.1496Y-2.1457
X6.1496Y-2.189
X6.1575Y-2.2717
X6.1929Y-2.2362
X6.3425Y-2.6496
T4
X5.8858Y-3.5276
X5.9843Y-3.5276
T5
X4.4803Y-1.8136
X4.4962Y-3.8125
X4.551Y-1.7429
X4.5669Y-3.8832
X5.0724Y-2.2014
X5.0724Y-2.3014
X5.0724Y-2.4014
X5.0724Y-2.5014
X5.0724Y-2.6014
X5.3937Y-3.0358
X5.3937Y-3.1358
X5.4937Y-3.0358
X5.4937Y-3.1358
X5.5937Y-3.0358
X5.5937Y-3.1358
X5.6937Y-3.0358
X5.6937Y-3.1358
X5.7937Y-3.0358
X5.7937Y-3.1358
X6.2205Y-3.3071
X6.2205Y-3.4055
X6.5973Y-1.7246
X6.6301Y-3.9788
X6.668Y-1.7953
X6.7008Y-3.9081
T3
G00X5.4205Y-3.5953
M15
G01X5.4205Y-3.6386
M16
G05
G00X5.4205Y-3.7697
M15
G01X5.4205Y-3.7933
M16
G05
G00X5.7606Y-3.5953
M15
G01X5.7606Y-3.6386
M16
G05
G00X5.7606Y-3.7697
M15
G01X5.7606Y-3.7933
M16
G05
T0
M30
