%TF.GenerationSoftware,KiCad,Pcbnew,(6.0.1)*%
%TF.CreationDate,2022-08-15T17:42:43+03:00*%
%TF.ProjectId,ESP32_Drone,45535033-325f-4447-926f-6e652e6b6963,rev?*%
%TF.SameCoordinates,Original*%
%TF.FileFunction,Legend,Bot*%
%TF.FilePolarity,Positive*%
%FSLAX46Y46*%
G04 Gerber Fmt 4.6, Leading zero omitted, Abs format (unit mm)*
G04 Created by KiCad (PCBNEW (6.0.1)) date 2022-08-15 17:42:43*
%MOMM*%
%LPD*%
G01*
G04 APERTURE LIST*
%ADD10C,0.375000*%
G04 APERTURE END LIST*
D10*
X158678571Y-72678571D02*
X158678571Y-71178571D01*
X158035714Y-72678571D02*
X158035714Y-71892857D01*
X158107142Y-71750000D01*
X158250000Y-71678571D01*
X158464285Y-71678571D01*
X158607142Y-71750000D01*
X158678571Y-71821428D01*
X157535714Y-71678571D02*
X156964285Y-71678571D01*
X157321428Y-71178571D02*
X157321428Y-72464285D01*
X157250000Y-72607142D01*
X157107142Y-72678571D01*
X156964285Y-72678571D01*
X156678571Y-71678571D02*
X156107142Y-71678571D01*
X156464285Y-71178571D02*
X156464285Y-72464285D01*
X156392857Y-72607142D01*
X156250000Y-72678571D01*
X156107142Y-72678571D01*
X155607142Y-71678571D02*
X155607142Y-73178571D01*
X155607142Y-71750000D02*
X155464285Y-71678571D01*
X155178571Y-71678571D01*
X155035714Y-71750000D01*
X154964285Y-71821428D01*
X154892857Y-71964285D01*
X154892857Y-72392857D01*
X154964285Y-72535714D01*
X155035714Y-72607142D01*
X155178571Y-72678571D01*
X155464285Y-72678571D01*
X155607142Y-72607142D01*
X154321428Y-72607142D02*
X154178571Y-72678571D01*
X153892857Y-72678571D01*
X153750000Y-72607142D01*
X153678571Y-72464285D01*
X153678571Y-72392857D01*
X153750000Y-72250000D01*
X153892857Y-72178571D01*
X154107142Y-72178571D01*
X154250000Y-72107142D01*
X154321428Y-71964285D01*
X154321428Y-71892857D01*
X154250000Y-71750000D01*
X154107142Y-71678571D01*
X153892857Y-71678571D01*
X153750000Y-71750000D01*
X153035714Y-72535714D02*
X152964285Y-72607142D01*
X153035714Y-72678571D01*
X153107142Y-72607142D01*
X153035714Y-72535714D01*
X153035714Y-72678571D01*
X153035714Y-71750000D02*
X152964285Y-71821428D01*
X153035714Y-71892857D01*
X153107142Y-71821428D01*
X153035714Y-71750000D01*
X153035714Y-71892857D01*
X151250000Y-71107142D02*
X152535714Y-73035714D01*
X149678571Y-71107142D02*
X150964285Y-73035714D01*
X148535714Y-71678571D02*
X148535714Y-72892857D01*
X148607142Y-73035714D01*
X148678571Y-73107142D01*
X148821428Y-73178571D01*
X149035714Y-73178571D01*
X149178571Y-73107142D01*
X148535714Y-72607142D02*
X148678571Y-72678571D01*
X148964285Y-72678571D01*
X149107142Y-72607142D01*
X149178571Y-72535714D01*
X149250000Y-72392857D01*
X149250000Y-71964285D01*
X149178571Y-71821428D01*
X149107142Y-71750000D01*
X148964285Y-71678571D01*
X148678571Y-71678571D01*
X148535714Y-71750000D01*
X147821428Y-72678571D02*
X147821428Y-71678571D01*
X147821428Y-71178571D02*
X147892857Y-71250000D01*
X147821428Y-71321428D01*
X147750000Y-71250000D01*
X147821428Y-71178571D01*
X147821428Y-71321428D01*
X147321428Y-71678571D02*
X146750000Y-71678571D01*
X147107142Y-71178571D02*
X147107142Y-72464285D01*
X147035714Y-72607142D01*
X146892857Y-72678571D01*
X146750000Y-72678571D01*
X146250000Y-72678571D02*
X146250000Y-71178571D01*
X145607142Y-72678571D02*
X145607142Y-71892857D01*
X145678571Y-71750000D01*
X145821428Y-71678571D01*
X146035714Y-71678571D01*
X146178571Y-71750000D01*
X146250000Y-71821428D01*
X144250000Y-71678571D02*
X144250000Y-72678571D01*
X144892857Y-71678571D02*
X144892857Y-72464285D01*
X144821428Y-72607142D01*
X144678571Y-72678571D01*
X144464285Y-72678571D01*
X144321428Y-72607142D01*
X144250000Y-72535714D01*
X143535714Y-72678571D02*
X143535714Y-71178571D01*
X143535714Y-71750000D02*
X143392857Y-71678571D01*
X143107142Y-71678571D01*
X142964285Y-71750000D01*
X142892857Y-71821428D01*
X142821428Y-71964285D01*
X142821428Y-72392857D01*
X142892857Y-72535714D01*
X142964285Y-72607142D01*
X143107142Y-72678571D01*
X143392857Y-72678571D01*
X143535714Y-72607142D01*
X142178571Y-72535714D02*
X142107142Y-72607142D01*
X142178571Y-72678571D01*
X142250000Y-72607142D01*
X142178571Y-72535714D01*
X142178571Y-72678571D01*
X140821428Y-72607142D02*
X140964285Y-72678571D01*
X141250000Y-72678571D01*
X141392857Y-72607142D01*
X141464285Y-72535714D01*
X141535714Y-72392857D01*
X141535714Y-71964285D01*
X141464285Y-71821428D01*
X141392857Y-71750000D01*
X141250000Y-71678571D01*
X140964285Y-71678571D01*
X140821428Y-71750000D01*
X139964285Y-72678571D02*
X140107142Y-72607142D01*
X140178571Y-72535714D01*
X140250000Y-72392857D01*
X140250000Y-71964285D01*
X140178571Y-71821428D01*
X140107142Y-71750000D01*
X139964285Y-71678571D01*
X139750000Y-71678571D01*
X139607142Y-71750000D01*
X139535714Y-71821428D01*
X139464285Y-71964285D01*
X139464285Y-72392857D01*
X139535714Y-72535714D01*
X139607142Y-72607142D01*
X139750000Y-72678571D01*
X139964285Y-72678571D01*
X138821428Y-72678571D02*
X138821428Y-71678571D01*
X138821428Y-71821428D02*
X138750000Y-71750000D01*
X138607142Y-71678571D01*
X138392857Y-71678571D01*
X138250000Y-71750000D01*
X138178571Y-71892857D01*
X138178571Y-72678571D01*
X138178571Y-71892857D02*
X138107142Y-71750000D01*
X137964285Y-71678571D01*
X137750000Y-71678571D01*
X137607142Y-71750000D01*
X137535714Y-71892857D01*
X137535714Y-72678571D01*
X135750000Y-71107142D02*
X137035714Y-73035714D01*
X134607142Y-72678571D02*
X134607142Y-71892857D01*
X134678571Y-71750000D01*
X134821428Y-71678571D01*
X135107142Y-71678571D01*
X135250000Y-71750000D01*
X134607142Y-72607142D02*
X134750000Y-72678571D01*
X135107142Y-72678571D01*
X135250000Y-72607142D01*
X135321428Y-72464285D01*
X135321428Y-72321428D01*
X135250000Y-72178571D01*
X135107142Y-72107142D01*
X134750000Y-72107142D01*
X134607142Y-72035714D01*
X134035714Y-71678571D02*
X133678571Y-72678571D01*
X133321428Y-71678571D01*
X132750000Y-72678571D02*
X132750000Y-71678571D01*
X132750000Y-71178571D02*
X132821428Y-71250000D01*
X132750000Y-71321428D01*
X132678571Y-71250000D01*
X132750000Y-71178571D01*
X132750000Y-71321428D01*
X132178571Y-71678571D02*
X131821428Y-72678571D01*
X131464285Y-71678571D01*
X131107142Y-71678571D02*
X130535714Y-71678571D01*
X130892857Y-72678571D02*
X130892857Y-71392857D01*
X130821428Y-71250000D01*
X130678571Y-71178571D01*
X130535714Y-71178571D01*
X129821428Y-72678571D02*
X129964285Y-72607142D01*
X130035714Y-72535714D01*
X130107142Y-72392857D01*
X130107142Y-71964285D01*
X130035714Y-71821428D01*
X129964285Y-71750000D01*
X129821428Y-71678571D01*
X129607142Y-71678571D01*
X129464285Y-71750000D01*
X129392857Y-71821428D01*
X129321428Y-71964285D01*
X129321428Y-72392857D01*
X129392857Y-72535714D01*
X129464285Y-72607142D01*
X129607142Y-72678571D01*
X129821428Y-72678571D01*
X128821428Y-72678571D02*
X128035714Y-71678571D01*
X128821428Y-71678571D02*
X128035714Y-72678571D01*
X127392857Y-72678571D02*
X127107142Y-72678571D01*
X126964285Y-72607142D01*
X126892857Y-72535714D01*
X126750000Y-72321428D01*
X126678571Y-72035714D01*
X126678571Y-71464285D01*
X126750000Y-71321428D01*
X126821428Y-71250000D01*
X126964285Y-71178571D01*
X127250000Y-71178571D01*
X127392857Y-71250000D01*
X127464285Y-71321428D01*
X127535714Y-71464285D01*
X127535714Y-71821428D01*
X127464285Y-71964285D01*
X127392857Y-72035714D01*
X127250000Y-72107142D01*
X126964285Y-72107142D01*
X126821428Y-72035714D01*
X126750000Y-71964285D01*
X126678571Y-71821428D01*
X126178571Y-71178571D02*
X125250000Y-71178571D01*
X125750000Y-71750000D01*
X125535714Y-71750000D01*
X125392857Y-71821428D01*
X125321428Y-71892857D01*
X125250000Y-72035714D01*
X125250000Y-72392857D01*
X125321428Y-72535714D01*
X125392857Y-72607142D01*
X125535714Y-72678571D01*
X125964285Y-72678571D01*
X126107142Y-72607142D01*
X126178571Y-72535714D01*
M02*
