%TF.GenerationSoftware,KiCad,Pcbnew,(6.0.1)*%
%TF.CreationDate,2022-08-15T17:42:43+03:00*%
%TF.ProjectId,ESP32_Drone,45535033-325f-4447-926f-6e652e6b6963,rev?*%
%TF.SameCoordinates,Original*%
%TF.FileFunction,Paste,Top*%
%TF.FilePolarity,Positive*%
%FSLAX46Y46*%
G04 Gerber Fmt 4.6, Leading zero omitted, Abs format (unit mm)*
G04 Created by KiCad (PCBNEW (6.0.1)) date 2022-08-15 17:42:43*
%MOMM*%
%LPD*%
G01*
G04 APERTURE LIST*
G04 Aperture macros list*
%AMRoundRect*
0 Rectangle with rounded corners*
0 $1 Rounding radius*
0 $2 $3 $4 $5 $6 $7 $8 $9 X,Y pos of 4 corners*
0 Add a 4 corners polygon primitive as box body*
4,1,4,$2,$3,$4,$5,$6,$7,$8,$9,$2,$3,0*
0 Add four circle primitives for the rounded corners*
1,1,$1+$1,$2,$3*
1,1,$1+$1,$4,$5*
1,1,$1+$1,$6,$7*
1,1,$1+$1,$8,$9*
0 Add four rect primitives between the rounded corners*
20,1,$1+$1,$2,$3,$4,$5,0*
20,1,$1+$1,$4,$5,$6,$7,0*
20,1,$1+$1,$6,$7,$8,$9,0*
20,1,$1+$1,$8,$9,$2,$3,0*%
%AMRotRect*
0 Rectangle, with rotation*
0 The origin of the aperture is its center*
0 $1 length*
0 $2 width*
0 $3 Rotation angle, in degrees counterclockwise*
0 Add horizontal line*
21,1,$1,$2,0,0,$3*%
G04 Aperture macros list end*
%ADD10C,1.000000*%
%ADD11C,0.010000*%
%ADD12RoundRect,0.200000X-0.275000X0.200000X-0.275000X-0.200000X0.275000X-0.200000X0.275000X0.200000X0*%
%ADD13RotRect,0.600000X0.700000X315.000000*%
%ADD14RotRect,1.300000X0.600000X135.000000*%
%ADD15RoundRect,0.218750X-0.218750X-0.381250X0.218750X-0.381250X0.218750X0.381250X-0.218750X0.381250X0*%
%ADD16RoundRect,0.225000X0.250000X-0.225000X0.250000X0.225000X-0.250000X0.225000X-0.250000X-0.225000X0*%
%ADD17RoundRect,0.075000X-0.075000X0.350000X-0.075000X-0.350000X0.075000X-0.350000X0.075000X0.350000X0*%
%ADD18RoundRect,0.075000X-0.350000X-0.075000X0.350000X-0.075000X0.350000X0.075000X-0.350000X0.075000X0*%
%ADD19RoundRect,0.200000X0.200000X0.800000X-0.200000X0.800000X-0.200000X-0.800000X0.200000X-0.800000X0*%
%ADD20RoundRect,0.200000X0.335876X0.053033X0.053033X0.335876X-0.335876X-0.053033X-0.053033X-0.335876X0*%
%ADD21RoundRect,0.225000X0.225000X0.250000X-0.225000X0.250000X-0.225000X-0.250000X0.225000X-0.250000X0*%
%ADD22R,0.600000X1.450000*%
%ADD23R,0.300000X1.450000*%
%ADD24R,0.350000X0.500000*%
%ADD25RoundRect,0.200000X-0.335876X-0.053033X-0.053033X-0.335876X0.335876X0.053033X0.053033X0.335876X0*%
%ADD26R,0.550000X1.200000*%
%ADD27RotRect,1.300000X0.600000X45.000000*%
%ADD28R,1.000000X1.500000*%
%ADD29RoundRect,0.200000X0.053033X-0.335876X0.335876X-0.053033X-0.053033X0.335876X-0.335876X0.053033X0*%
%ADD30RoundRect,0.225000X-0.225000X-0.250000X0.225000X-0.250000X0.225000X0.250000X-0.225000X0.250000X0*%
%ADD31RoundRect,0.225000X-0.250000X0.225000X-0.250000X-0.225000X0.250000X-0.225000X0.250000X0.225000X0*%
%ADD32RoundRect,0.200000X0.200000X0.275000X-0.200000X0.275000X-0.200000X-0.275000X0.200000X-0.275000X0*%
%ADD33RoundRect,0.200000X-0.053033X0.335876X-0.335876X0.053033X0.053033X-0.335876X0.335876X-0.053033X0*%
%ADD34R,2.000000X0.900000*%
%ADD35R,0.900000X2.000000*%
%ADD36R,5.000000X5.000000*%
%ADD37RotRect,1.300000X0.600000X315.000000*%
%ADD38RotRect,0.600000X0.700000X225.000000*%
%ADD39RotRect,0.600000X0.700000X135.000000*%
%ADD40RoundRect,0.218750X-0.256250X0.218750X-0.256250X-0.218750X0.256250X-0.218750X0.256250X0.218750X0*%
%ADD41RoundRect,0.218750X0.256250X-0.218750X0.256250X0.218750X-0.256250X0.218750X-0.256250X-0.218750X0*%
%ADD42RoundRect,0.007500X0.117500X-0.242500X0.117500X0.242500X-0.117500X0.242500X-0.117500X-0.242500X0*%
%ADD43RoundRect,0.200000X0.275000X-0.200000X0.275000X0.200000X-0.275000X0.200000X-0.275000X-0.200000X0*%
%ADD44RotRect,1.300000X0.600000X225.000000*%
G04 APERTURE END LIST*
D10*
%TO.C,SYM1*%
X184396000Y-33154000D02*
G75*
G03*
X184396000Y-33154000I-4550000J0D01*
G01*
X108704000Y-108840784D02*
G75*
G03*
X108704000Y-108840784I-4550000J0D01*
G01*
X108704000Y-33154000D02*
G75*
G03*
X108704000Y-33154000I-4550000J0D01*
G01*
X184396000Y-108846000D02*
G75*
G03*
X184396000Y-108846000I-4550000J0D01*
G01*
D11*
%TO.C,PS1*%
X136000000Y-85412500D02*
X136000000Y-84512500D01*
X136000000Y-84512500D02*
X136700000Y-84512500D01*
X136700000Y-84512500D02*
X136700000Y-85412500D01*
X136700000Y-85412500D02*
X136000000Y-85412500D01*
G36*
X136700000Y-85412500D02*
G01*
X136000000Y-85412500D01*
X136000000Y-84512500D01*
X136700000Y-84512500D01*
X136700000Y-85412500D01*
G37*
X136700000Y-85412500D02*
X136000000Y-85412500D01*
X136000000Y-84512500D01*
X136700000Y-84512500D01*
X136700000Y-85412500D01*
X136900000Y-85412500D02*
X136900000Y-84512500D01*
X136900000Y-84512500D02*
X137600000Y-84512500D01*
X137600000Y-84512500D02*
X137600000Y-85412500D01*
X137600000Y-85412500D02*
X136900000Y-85412500D01*
G36*
X137600000Y-85412500D02*
G01*
X136900000Y-85412500D01*
X136900000Y-84512500D01*
X137600000Y-84512500D01*
X137600000Y-85412500D01*
G37*
X137600000Y-85412500D02*
X136900000Y-85412500D01*
X136900000Y-84512500D01*
X137600000Y-84512500D01*
X137600000Y-85412500D01*
%TD*%
D12*
%TO.C,R5*%
X153300000Y-54275000D03*
X153300000Y-55925000D03*
%TD*%
D13*
%TO.C,D5*%
X166694975Y-48394975D03*
X165705025Y-47405025D03*
%TD*%
D14*
%TO.C,Q1*%
X119970711Y-51414214D03*
X121314214Y-50070711D03*
X119157538Y-49257538D03*
%TD*%
D12*
%TO.C,R16*%
X144000000Y-87175000D03*
X144000000Y-88825000D03*
%TD*%
D15*
%TO.C,L1*%
X136437500Y-82562500D03*
X138562500Y-82562500D03*
%TD*%
D16*
%TO.C,C3*%
X131200000Y-49375000D03*
X131200000Y-47825000D03*
%TD*%
D17*
%TO.C,U3*%
X143250000Y-69050000D03*
X142750000Y-69050000D03*
X142250000Y-69050000D03*
X141750000Y-69050000D03*
X141250000Y-69050000D03*
X140750000Y-69050000D03*
D18*
X140050000Y-69750000D03*
X140050000Y-70250000D03*
X140050000Y-70750000D03*
X140050000Y-71250000D03*
X140050000Y-71750000D03*
X140050000Y-72250000D03*
D17*
X140750000Y-72950000D03*
X141250000Y-72950000D03*
X141750000Y-72950000D03*
X142250000Y-72950000D03*
X142750000Y-72950000D03*
X143250000Y-72950000D03*
D18*
X143950000Y-72250000D03*
X143950000Y-71750000D03*
X143950000Y-71250000D03*
X143950000Y-70750000D03*
X143950000Y-70250000D03*
X143950000Y-69750000D03*
%TD*%
D19*
%TO.C,SW1*%
X125500000Y-56600000D03*
X121300000Y-56600000D03*
%TD*%
D20*
%TO.C,R12*%
X161683363Y-52683363D03*
X160516637Y-51516637D03*
%TD*%
D21*
%TO.C,C1*%
X153575000Y-78900000D03*
X152025000Y-78900000D03*
%TD*%
D22*
%TO.C,J8*%
X138750000Y-90955000D03*
X139550000Y-90955000D03*
D23*
X140750000Y-90955000D03*
X141750000Y-90955000D03*
X142250000Y-90955000D03*
X143250000Y-90955000D03*
D22*
X144450000Y-90955000D03*
X145250000Y-90955000D03*
X145250000Y-90955000D03*
X144450000Y-90955000D03*
D23*
X143750000Y-90955000D03*
X142750000Y-90955000D03*
X141250000Y-90955000D03*
X140250000Y-90955000D03*
D22*
X139550000Y-90955000D03*
X138750000Y-90955000D03*
%TD*%
D24*
%TO.C,U4*%
X155145000Y-58800000D03*
X155795000Y-58800000D03*
X156445000Y-58800000D03*
X157095000Y-58800000D03*
X157095000Y-60400000D03*
X156445000Y-60400000D03*
X155795000Y-60400000D03*
X155145000Y-60400000D03*
%TD*%
D25*
%TO.C,R14*%
X122086792Y-89456532D03*
X123253518Y-90623258D03*
%TD*%
D26*
%TO.C,U2*%
X151050000Y-83250000D03*
X152000000Y-83250000D03*
X152950000Y-83250000D03*
X152950000Y-80750000D03*
X151050000Y-80750000D03*
%TD*%
D12*
%TO.C,R15*%
X140500000Y-87175000D03*
X140500000Y-88825000D03*
%TD*%
D27*
%TO.C,Q2*%
X161785786Y-50170711D03*
X163129289Y-51514214D03*
X163942462Y-49357538D03*
%TD*%
D28*
%TO.C,D3*%
X155400000Y-73450000D03*
X158600000Y-73450000D03*
X158600000Y-68550000D03*
X155400000Y-68550000D03*
%TD*%
D29*
%TO.C,R13*%
X161116637Y-93183363D03*
X162283363Y-92016637D03*
%TD*%
D30*
%TO.C,C6*%
X142225000Y-74500000D03*
X143775000Y-74500000D03*
%TD*%
D31*
%TO.C,C12*%
X140500000Y-84187500D03*
X140500000Y-85737500D03*
%TD*%
D12*
%TO.C,R10*%
X131225000Y-84175000D03*
X131225000Y-85825000D03*
%TD*%
%TO.C,R1*%
X125800000Y-60675000D03*
X125800000Y-62325000D03*
%TD*%
D32*
%TO.C,R2*%
X149325000Y-83400000D03*
X147675000Y-83400000D03*
%TD*%
%TO.C,R8*%
X149225000Y-70700000D03*
X147575000Y-70700000D03*
%TD*%
D33*
%TO.C,R11*%
X122783363Y-51616637D03*
X121616637Y-52783363D03*
%TD*%
D31*
%TO.C,C10*%
X138900000Y-84187500D03*
X138900000Y-85737500D03*
%TD*%
D34*
%TO.C,U1*%
X133500000Y-47745000D03*
X133500000Y-49015000D03*
X133500000Y-50285000D03*
X133500000Y-51555000D03*
X133500000Y-52825000D03*
X133500000Y-54095000D03*
X133500000Y-55365000D03*
X133500000Y-56635000D03*
X133500000Y-57905000D03*
X133500000Y-59175000D03*
X133500000Y-60445000D03*
X133500000Y-61715000D03*
X133500000Y-62985000D03*
X133500000Y-64255000D03*
D35*
X136285000Y-65255000D03*
X137555000Y-65255000D03*
X138825000Y-65255000D03*
X140095000Y-65255000D03*
X141365000Y-65255000D03*
X142635000Y-65255000D03*
X143905000Y-65255000D03*
X145175000Y-65255000D03*
X146445000Y-65255000D03*
X147715000Y-65255000D03*
D34*
X150500000Y-64255000D03*
X150500000Y-62985000D03*
X150500000Y-61715000D03*
X150500000Y-60445000D03*
X150500000Y-59175000D03*
X150500000Y-57905000D03*
X150500000Y-56635000D03*
X150500000Y-55365000D03*
X150500000Y-54095000D03*
X150500000Y-52825000D03*
X150500000Y-51555000D03*
X150500000Y-50285000D03*
X150500000Y-49015000D03*
X150500000Y-47745000D03*
D36*
X141000000Y-55245000D03*
%TD*%
D21*
%TO.C,C2*%
X153575000Y-77300000D03*
X152025000Y-77300000D03*
%TD*%
D37*
%TO.C,Q3*%
X163734314Y-93280761D03*
X162390811Y-94624264D03*
X164547487Y-95437437D03*
%TD*%
D21*
%TO.C,C7*%
X138475000Y-71200000D03*
X136925000Y-71200000D03*
%TD*%
D38*
%TO.C,D6*%
X165110050Y-98089950D03*
X166100000Y-97100000D03*
%TD*%
D39*
%TO.C,D7*%
X116675180Y-93844920D03*
X117665130Y-94834870D03*
%TD*%
D40*
%TO.C,D1*%
X146100000Y-83412500D03*
X146100000Y-84987500D03*
%TD*%
D21*
%TO.C,C13*%
X154875000Y-61740000D03*
X153325000Y-61740000D03*
%TD*%
D41*
%TO.C,D2*%
X147700000Y-69100000D03*
X147700000Y-67525000D03*
%TD*%
D30*
%TO.C,C14*%
X156825000Y-61740000D03*
X158375000Y-61740000D03*
%TD*%
D38*
%TO.C,D4*%
X116905025Y-48894975D03*
X117894975Y-47905025D03*
%TD*%
D31*
%TO.C,C8*%
X153200000Y-73125000D03*
X153200000Y-74675000D03*
%TD*%
D42*
%TO.C,PS1*%
X136050000Y-85912500D03*
X136550000Y-85912500D03*
X137050000Y-85912500D03*
X137550000Y-85912500D03*
X137550000Y-84012500D03*
X137050000Y-84012500D03*
X136550000Y-84012500D03*
X136050000Y-84012500D03*
%TD*%
D31*
%TO.C,C5*%
X134700000Y-83525000D03*
X134700000Y-85075000D03*
%TD*%
D43*
%TO.C,R3*%
X150500000Y-79025000D03*
X150500000Y-77375000D03*
%TD*%
D21*
%TO.C,C4*%
X153275000Y-85000000D03*
X151725000Y-85000000D03*
%TD*%
D43*
%TO.C,R7*%
X129800000Y-53225000D03*
X129800000Y-51575000D03*
%TD*%
D31*
%TO.C,C9*%
X145500000Y-72425000D03*
X145500000Y-73975000D03*
%TD*%
D12*
%TO.C,R9*%
X133125000Y-84175000D03*
X133125000Y-85825000D03*
%TD*%
D44*
%TO.C,Q4*%
X121984369Y-91969184D03*
X120640866Y-90625681D03*
X119827693Y-92782357D03*
%TD*%
D12*
%TO.C,R4*%
X154900000Y-54275000D03*
X154900000Y-55925000D03*
%TD*%
%TO.C,R6*%
X128100000Y-51575000D03*
X128100000Y-53225000D03*
%TD*%
M02*
